<?xml version="1.0" standalone="no"?>
<!DOCTYPE svg PUBLIC "-//W3C//DTD SVG 20010904//EN"
 "http://www.w3.org/TR/2001/REC-SVG-20010904/DTD/svg10.dtd">
<svg version="1.0" xmlns="http://www.w3.org/2000/svg"
 width="1280.000000pt" height="944.000000pt" viewBox="0 0 1280.000000 944.000000"
 preserveAspectRatio="xMidYMid meet">
<metadata>
Created by potrace 1.15, written by Peter Selinger 2001-2017
</metadata>
<g transform="translate(0.000000,944.000000) scale(0.100000,-0.100000)"
fill="#000000" stroke="none">
<path d="M6540 9283 c0 -87 5 -446 10 -798 9 -607 17 -1149 40 -2760 5 -385
14 -1013 20 -1395 24 -1637 30 -2116 40 -2815 5 -407 13 -857 16 -1001 l6
-261 56 -27 c47 -23 159 -45 230 -46 9 0 12 28 12 105 l0 105 365 0 365 0 0
-78 0 -78 63 -26 c59 -26 77 -30 194 -43 l52 -6 -6 121 -6 120 28 0 c21 0 41
-15 86 -64 105 -115 237 -183 369 -193 90 -6 142 6 208 50 l49 34 69 -28 c47
-18 95 -28 153 -32 l84 -5 -6 122 -6 123 152 6 151 6 67 -64 c119 -112 295
-177 417 -155 34 6 92 7 145 2 l87 -8 0 101 c0 65 4 107 13 118 11 16 42 17
362 15 l350 -3 5 -93 5 -94 58 -23 c38 -16 89 -26 152 -31 l94 -7 -6 36 -5 35
64 -5 c124 -10 244 53 293 155 l19 39 81 7 c44 3 124 6 178 6 l97 0 1 -57 c1
-32 4 -82 7 -112 l7 -54 54 -18 c30 -11 97 -22 149 -25 l95 -7 -8 125 -7 124
62 -4 c40 -3 84 2 125 13 53 14 72 25 110 66 140 149 148 365 18 479 -55 48
-100 64 -168 58 -58 -5 -123 -44 -133 -80 -16 -61 -22 15 -22 271 l0 288 92 7
c50 3 130 6 178 6 l87 0 34 113 c30 101 38 117 81 160 74 74 102 136 103 227
0 82 -14 113 -68 145 -72 43 -141 38 -200 -14 -61 -56 -34 -147 52 -169 l36
-9 -45 -13 c-138 -39 -215 16 -215 155 0 95 25 143 126 242 105 102 163 179
213 283 41 84 41 86 41 200 0 113 -1 116 -39 195 -31 63 -57 98 -125 165 -47
47 -112 107 -144 133 -68 57 -97 110 -104 187 -11 114 38 180 130 180 29 0 70
-5 92 -12 l40 -12 -32 -5 c-71 -13 -92 -64 -61 -143 22 -58 115 -86 176 -54
125 65 135 251 20 363 -43 42 -117 82 -150 83 -10 0 -18 5 -18 10 0 6 5 10 10
10 24 0 109 93 131 143 31 71 33 174 3 213 -67 91 -177 103 -251 29 -36 -36
-42 -69 -19 -114 15 -29 52 -50 89 -52 44 -1 -47 -31 -99 -32 -64 -2 -99 20
-125 76 -25 55 -24 123 2 192 16 44 38 72 96 128 269 258 336 484 213 715 -42
80 -112 156 -219 241 -107 84 -134 130 -139 236 -3 61 -1 75 20 105 13 19 35
40 48 47 32 16 115 15 160 -2 l35 -13 -32 -1 c-90 -2 -109 -125 -28 -187 72
-55 175 -20 226 76 7 14 13 56 13 96 l-1 70 50 18 c68 24 140 94 180 175 29
58 32 75 32 151 0 73 -4 92 -27 136 -48 90 -127 144 -214 144 -96 0 -164 -58
-164 -140 0 -41 5 -55 30 -84 52 -58 113 -60 149 -3 24 37 25 29 10 -43 -32
-150 -181 -178 -298 -56 -24 24 -32 41 -28 55 4 16 0 21 -14 21 -13 0 -21 11
-29 43 -47 194 -92 303 -159 379 l-40 45 -3 108 -3 107 -119 44 c-66 24 -121
44 -123 44 -2 0 -3 -42 -3 -93 l0 -93 -85 -2 c-104 -2 -181 -19 -319 -72 -134
-51 -213 -55 -294 -14 -70 35 -92 68 -92 137 0 43 5 62 28 93 16 21 37 46 47
54 17 14 18 13 10 -5 -20 -48 -17 -81 9 -112 35 -42 76 -50 124 -25 98 50 118
184 40 261 -45 44 -115 65 -199 59 l-69 -5 0 132 c0 73 -3 165 -6 206 l-7 74
-110 45 c-60 25 -114 47 -118 48 -5 2 -9 -10 -9 -27 0 -17 -1 -31 -2 -31 -2 0
-28 10 -58 22 -46 19 -75 22 -181 23 l-127 0 -78 -43 c-134 -72 -277 -140
-311 -147 l-33 -7 0 74 0 74 -118 47 c-64 26 -120 47 -124 47 -4 0 -8 -15 -10
-32 -3 -29 -8 -20 -42 67 -49 124 -69 157 -137 221 -172 161 -424 207 -570
103 l-26 -18 -7 46 c-3 25 -6 107 -6 182 l0 136 -91 40 c-89 39 -91 41 -115
94 -35 78 -64 113 -120 143 -99 52 -182 45 -246 -23 -31 -32 -38 -47 -38 -80
0 -82 50 -139 122 -139 25 0 68 37 68 58 0 7 5 12 11 12 15 0 2 -94 -19 -139
-65 -139 -309 -57 -362 122 -37 129 -116 263 -201 341 -58 54 -59 56 -59 110
l0 56 -120 60 c-66 33 -122 60 -125 60 -3 0 -5 -38 -5 -85 l0 -85 -38 0 c-73
0 -196 -40 -327 -105 -151 -76 -201 -86 -288 -61 -138 40 -175 153 -86 258
l28 33 -5 -35 c-13 -98 98 -148 174 -78 56 53 67 124 30 198 -35 68 -88 92
-203 89 l-90 -2 -112 56 c-62 32 -115 57 -118 57 -3 0 -5 -71 -5 -157z m1043
-590 c4 -71 7 -216 7 -323 l-1 -195 -42 100 c-61 143 -69 156 -139 220 -58 52
-203 135 -239 135 -8 0 13 15 46 34 33 18 95 52 137 75 83 45 170 80 204 81
20 0 21 -7 27 -127z m-733 -51 l46 -17 -48 -32 -48 -31 0 49 c0 27 1 49 3 49
1 0 22 -8 47 -18z m1078 -249 c29 -40 89 -95 142 -130 54 -35 134 -73 155 -73
23 0 18 -18 -7 -26 -12 -3 -60 -29 -106 -56 -99 -59 -176 -94 -224 -103 l-35
-7 -6 159 c-4 87 -7 219 -7 293 l0 135 34 -82 c19 -45 43 -95 54 -110z m-803
36 c54 -15 121 -63 150 -107 13 -20 37 -75 54 -120 17 -46 46 -112 66 -148 39
-70 131 -174 176 -201 l29 -17 0 -249 0 -248 -25 -34 c-38 -49 -65 -135 -65
-207 0 -69 26 -139 72 -193 26 -30 26 -30 30 -273 3 -191 1 -242 -9 -242 -22
0 -88 67 -115 117 -15 26 -45 95 -68 152 -22 57 -54 123 -70 146 -89 129 -286
229 -447 227 l-73 -1 0 157 c-1 86 -5 319 -10 517 -5 198 -8 361 -6 362 1 1
24 -9 51 -23 96 -49 216 -19 260 66 44 85 -22 187 -115 178 -26 -2 -40 -11
-58 -38 l-24 -35 4 55 c6 75 34 131 78 152 41 21 60 22 115 7z m1508 -217 c5
-67 4 -73 -11 -66 -9 4 -38 15 -65 24 l-47 17 39 26 c22 15 48 37 58 51 10 13
19 23 19 23 1 -1 4 -35 7 -75z m633 -268 c67 -41 100 -87 140 -194 61 -165
138 -278 233 -344 l41 -29 0 -96 0 -96 -70 3 c-94 5 -207 -25 -345 -91 -99
-47 -117 -52 -176 -51 -51 0 -79 6 -121 27 -63 31 -68 43 -68 153 0 60 2 67
36 102 22 23 31 29 25 15 -26 -53 0 -100 67 -124 62 -21 141 29 157 100 8 36
-10 106 -36 143 -31 43 -116 79 -187 79 l-60 1 -4 34 c-2 19 -2 34 -1 34 2 0
20 -8 41 -19 108 -54 228 -20 269 76 32 78 -31 173 -115 173 -28 0 -63 -28
-75 -60 -3 -8 -6 6 -6 32 -1 64 25 126 63 150 46 28 130 21 192 -18z m-741
-10 c52 -27 85 -76 85 -126 0 -42 -26 -103 -56 -130 -18 -16 -19 -15 -16 27 4
39 0 49 -27 76 -28 28 -37 31 -73 26 -104 -14 -155 -156 -92 -252 36 -56 164
-90 248 -66 22 6 42 8 45 6 7 -8 9 -435 1 -435 -3 0 -28 7 -54 16 -37 13 -71
15 -149 11 -113 -5 -184 -26 -326 -96 -72 -35 -95 -41 -147 -41 -95 0 -94 -1
-94 94 l0 81 45 -3 c52 -5 105 22 123 63 18 39 14 111 -8 155 -23 45 -65 78
-123 95 l-42 12 -7 164 c-3 90 -5 165 -4 166 1 2 36 9 77 17 91 17 189 54 276
102 36 21 82 43 102 51 53 19 167 13 216 -13z m2078 -456 c51 -28 87 -80 87
-125 0 -34 -24 -89 -59 -132 l-19 -25 5 46 c5 40 2 49 -24 78 -49 55 -122 41
-177 -34 -16 -20 -21 -42 -21 -85 1 -120 79 -177 232 -169 l83 4 0 -45 c0 -25
3 -111 6 -191 l5 -145 -33 59 c-55 100 -163 167 -242 152 -41 -8 -105 -61
-122 -102 -29 -70 -7 -145 49 -169 43 -18 82 -9 112 27 l25 30 0 -37 c0 -50
-21 -96 -59 -128 -72 -60 -211 -16 -284 91 -14 20 -38 75 -53 122 -35 113 -84
214 -139 289 l-45 61 0 140 0 140 23 0 c57 0 192 45 312 104 72 36 139 67 150
70 43 11 147 -3 188 -26z m-928 -510 c1 -1 6 -155 9 -340 l7 -338 -74 0 -75 0
24 58 c63 152 2 326 -138 396 -64 32 -111 33 -162 3 -54 -30 -78 -67 -84 -125
-5 -54 15 -104 47 -122 48 -25 111 -5 140 45 10 17 11 11 7 -33 -13 -132 -109
-184 -231 -126 -55 26 -120 96 -138 147 -8 23 -32 87 -53 142 -20 55 -39 122
-42 149 -4 44 -2 48 14 42 50 -19 146 -36 207 -36 76 0 137 18 272 80 112 52
179 71 228 66 21 -3 40 -6 42 -8z m-1112 -102 c18 -7 44 -26 58 -42 27 -29 27
-30 33 -239 6 -191 5 -208 -9 -190 -96 124 -222 185 -380 185 -97 0 -157 -19
-271 -84 -54 -31 -101 -56 -105 -56 -7 0 -18 288 -12 301 1 3 31 2 65 -4 89
-13 168 3 290 59 182 83 262 100 331 70z m-1546 -58 c99 -43 140 -94 192 -237
34 -94 94 -199 140 -248 17 -18 31 -34 31 -37 0 -4 -119 -6 -265 -6 l-265 0 0
58 0 59 43 13 c25 7 57 28 80 52 31 32 37 46 37 81 0 54 -17 86 -59 114 -37
25 -80 30 -99 11 -9 -9 -12 2 -12 50 0 60 1 63 33 82 36 23 102 26 144 8z
m4751 -335 l2 -183 -393 0 -394 0 -6 107 c-4 58 -7 121 -7 139 l0 32 53 -21
c42 -17 74 -21 167 -22 l115 0 110 49 c144 65 216 85 290 83 l60 -2 3 -182z
m-1048 -83 l0 -100 -82 0 -81 0 41 30 c50 36 98 100 107 141 4 16 8 29 11 29
2 0 4 -45 4 -100z m-690 -10 c30 -31 66 -63 80 -72 24 -16 22 -17 -72 -17
l-98 -1 1 98 c0 94 1 96 17 72 9 -14 41 -50 72 -80z m-1633 -62 c24 -11 43
-24 43 -29 0 -5 -79 -9 -175 -9 -96 0 -175 2 -175 5 0 8 79 45 117 55 52 12
138 2 190 -22z m2643 -335 c-30 -32 -55 -60 -57 -62 -2 -2 -3 21 -3 52 l0 56
48 4 c26 2 51 4 56 5 5 1 -15 -24 -44 -55z m734 -630 c12 -1234 26 -2941 26
-3265 l0 -318 -164 0 -164 0 57 58 c66 65 95 133 94 217 0 67 -23 109 -76 140
-99 57 -226 9 -227 -87 0 -50 34 -88 86 -97 l39 -7 -54 -18 c-124 -42 -211 21
-211 154 0 97 29 149 143 262 170 168 243 313 241 473 -3 170 -72 282 -279
455 -66 55 -93 85 -111 124 -46 99 -41 187 15 240 36 34 90 43 163 26 l53 -13
-40 -11 c-91 -26 -86 -146 8 -196 41 -22 49 -23 85 -12 86 26 132 90 132 183
0 79 -19 126 -74 186 -46 51 -49 56 -30 66 34 18 91 84 114 131 29 61 37 150
17 197 -40 96 -177 130 -256 63 -72 -60 -33 -173 61 -174 22 -1 22 -1 -5 -16
-15 -8 -49 -17 -75 -20 -100 -11 -168 66 -159 181 6 86 35 135 151 255 114
118 160 183 202 285 26 62 29 82 29 175 0 100 -2 109 -36 180 -47 99 -116 180
-232 273 -114 92 -140 135 -145 242 -2 57 1 76 18 103 35 56 109 75 195 50
l40 -11 -28 -8 c-16 -4 -35 -13 -44 -20 -62 -52 -14 -174 77 -194 49 -11 130
34 160 87 38 66 35 155 -6 228 -17 30 -50 70 -73 88 l-43 32 160 0 160 0 6
-687z m-1054 638 c0 -22 3 -48 7 -58 5 -14 -1 -11 -26 10 -73 61 -107 72 -221
72 -91 0 -111 -3 -155 -25 -99 -49 -162 -134 -172 -234 -13 -121 63 -216 172
-216 131 0 176 200 47 212 l-37 4 30 13 c17 8 54 16 84 19 103 9 156 -45 155
-158 0 -102 -28 -152 -139 -255 -252 -231 -300 -457 -150 -700 42 -68 149
-182 229 -245 105 -82 150 -209 110 -310 -29 -71 -91 -98 -180 -80 -56 12 -73
30 -28 30 39 0 84 50 84 95 0 99 -153 146 -244 74 -65 -51 -76 -156 -26 -256
17 -33 39 -68 50 -78 19 -17 19 -18 -32 -64 -91 -82 -123 -200 -79 -297 40
-89 147 -130 216 -83 44 30 60 61 59 111 -2 49 -30 80 -73 82 -43 1 -39 12 12
24 76 19 87 20 121 11 82 -23 119 -112 92 -219 -20 -78 -29 -90 -164 -225 -93
-94 -115 -123 -153 -198 -39 -80 -43 -97 -47 -177 -3 -70 0 -103 16 -157 34
-110 118 -228 237 -331 103 -90 125 -113 144 -151 53 -104 47 -206 -15 -261
-30 -26 -42 -30 -92 -30 -31 1 -70 7 -87 15 l-30 13 28 1 c41 1 75 29 88 70
15 52 -8 96 -64 122 -71 32 -127 22 -184 -33 -42 -40 -57 -87 -48 -146 10 -67
37 -124 85 -176 l43 -46 -177 0 c-133 0 -178 3 -180 13 -3 6 -9 334 -15 727
-7 393 -16 951 -21 1240 -5 289 -14 786 -20 1105 -5 319 -13 714 -16 877 l-7
298 169 3 c93 1 267 4 387 5 l217 2 0 -39z m-1026 -433 c7 -470 20 -1733 32
-3065 l7 -733 -75 0 -75 0 23 47 c64 136 25 258 -94 294 -80 23 -182 -36 -182
-106 0 -46 40 -92 88 -101 l37 -7 -40 -14 c-139 -48 -233 22 -223 166 7 92 35
140 143 247 104 103 177 207 214 303 20 54 25 84 25 167 1 99 0 103 -41 185
-47 95 -121 183 -221 260 -88 69 -118 104 -138 163 -33 98 -13 201 47 231 34
18 109 19 164 3 l40 -12 -37 -6 c-48 -9 -66 -25 -74 -64 -13 -71 51 -146 124
-146 43 0 105 32 131 68 84 119 18 305 -133 373 l-40 18 29 11 c49 19 109 75
140 131 39 72 47 187 16 237 -24 38 -72 69 -119 78 -42 8 -115 -19 -142 -53
-24 -31 -26 -85 -4 -118 17 -26 77 -51 95 -39 8 4 9 3 5 -4 -10 -16 -73 -32
-127 -32 -84 0 -130 59 -131 164 0 95 25 142 147 266 111 115 172 200 204 284
88 236 17 429 -231 629 -119 96 -153 152 -153 258 0 56 4 71 28 102 36 47 88
62 160 47 71 -14 94 -30 45 -30 -27 0 -42 -6 -57 -26 -74 -94 58 -227 167
-170 36 19 78 65 91 99 6 16 11 54 11 86 0 102 -66 198 -167 243 -24 10 -43
20 -43 21 0 1 74 4 164 5 l164 4 6 -464z m-599 433 c-52 -24 -110 -84 -140
-146 l-24 -50 -1 108 0 107 103 0 102 0 -40 -19z m-894 -15 c10 -22 7 -29 -39
-75 -128 -128 -105 -332 44 -381 50 -17 95 -5 133 34 27 28 33 42 33 82 1 40
-3 51 -26 71 -15 12 -39 23 -54 24 -26 1 -26 1 8 16 46 20 130 22 164 4 45
-24 67 -72 68 -144 0 -99 -25 -145 -146 -262 -166 -160 -226 -276 -226 -434 1
-168 100 -334 297 -493 75 -61 108 -109 128 -185 42 -160 -58 -258 -210 -208
-36 11 -37 13 -13 14 15 1 42 14 59 29 25 22 32 36 33 69 1 48 -21 78 -71 99
-118 50 -247 -50 -230 -178 9 -70 66 -168 120 -208 l47 -35 -44 -11 c-153 -39
-241 -141 -241 -279 1 -82 18 -121 71 -161 25 -19 51 -29 87 -32 47 -3 55 -1
90 30 75 64 56 172 -31 180 l-37 4 30 13 c50 23 137 26 174 6 47 -24 75 -91
68 -165 -7 -85 -43 -144 -141 -233 -238 -217 -294 -429 -173 -662 41 -79 125
-173 275 -308 59 -53 90 -111 99 -187 8 -67 -18 -135 -61 -161 -37 -23 -126
-25 -171 -4 l-30 13 33 1 c47 1 92 48 92 94 0 45 -30 81 -85 102 -72 28 -154
0 -195 -67 -24 -40 -27 -132 -5 -185 8 -19 15 -37 15 -39 0 -2 -38 -4 -83 -4
l-84 0 -7 382 c-3 211 -11 590 -16 843 -12 582 -27 1340 -40 1975 -5 272 -13
618 -16 768 l-7 272 152 0 c151 0 151 0 162 -24z m459 -33 l0 -58 -26 27 -27
26 24 31 c13 16 25 30 27 30 1 1 2 -25 2 -56z m-1036 -185 c3 -128 10 -600 16
-1048 13 -1036 28 -2065 36 -2567 l6 -393 -116 0 c-64 0 -116 2 -116 5 0 3 13
23 29 45 36 50 55 125 48 193 -4 43 -10 56 -44 88 -72 67 -157 71 -226 10 -62
-56 -32 -152 52 -168 l36 -6 -33 -14 c-45 -18 -111 -20 -150 -4 -52 22 -77 73
-76 156 1 42 8 86 18 108 9 22 67 92 129 157 116 121 160 184 206 292 23 55
26 77 26 174 0 108 -1 112 -39 188 -40 82 -130 181 -273 304 -69 59 -103 127
-103 208 0 127 88 183 225 142 l40 -12 -32 -5 c-53 -10 -73 -34 -73 -88 1
-128 155 -168 243 -64 73 87 57 230 -36 319 l-35 34 39 35 c78 70 120 214 86
295 -18 43 -78 86 -131 95 -74 12 -166 -49 -166 -110 0 -52 69 -115 109 -99 9
3 12 1 7 -6 -9 -16 -72 -32 -123 -32 -33 0 -50 7 -77 31 -59 51 -71 137 -34
236 17 47 39 75 120 155 105 104 183 213 219 306 19 47 23 77 24 167 0 107 -1
112 -37 185 -56 113 -99 161 -271 303 -67 55 -99 114 -105 196 -6 92 14 136
77 164 40 17 52 18 105 9 66 -13 98 -32 52 -32 -39 0 -61 -15 -76 -50 -11 -26
-10 -37 4 -73 30 -77 108 -107 182 -69 49 25 72 51 90 99 19 54 17 104 -6 167
-50 132 -198 209 -360 186 -107 -15 -182 -66 -228 -154 l-21 -38 -3 101 -3
100 70 4 c39 2 210 4 381 5 l312 2 6 -232z m1379 -416 c21 -36 72 -87 154
-157 185 -158 214 -226 153 -353 -27 -55 -57 -91 -166 -197 -73 -71 -144 -150
-157 -174 l-25 -43 -6 93 c-3 52 -8 290 -11 529 -4 397 -4 432 10 395 9 -22
30 -64 48 -93z m2007 87 c0 -27 62 -96 168 -186 145 -124 174 -164 180 -244 7
-96 -24 -148 -188 -309 -76 -74 -142 -144 -148 -154 -7 -14 -11 45 -16 205
-14 563 -16 710 -6 704 6 -3 10 -11 10 -16z m-4089 -141 c17 -26 76 -87 132
-135 169 -146 197 -185 197 -274 0 -85 -43 -151 -189 -290 -69 -66 -136 -136
-147 -155 l-22 -35 -6 123 c-12 256 -17 864 -5 838 5 -14 24 -46 40 -72z
m5228 -31 c65 -57 113 -109 128 -136 55 -104 16 -208 -130 -353 -49 -49 -93
-88 -98 -88 -5 0 -9 121 -9 283 0 155 -3 306 -6 335 -4 28 -3 52 2 52 5 0 56
-42 113 -93z m-1413 -674 c-7 -8 -122 83 -187 147 -103 102 -134 207 -88 295
12 22 76 96 142 165 l122 125 8 -363 c5 -200 6 -366 3 -369z m-2059 115 l-2
-157 -72 55 c-156 117 -237 225 -237 314 0 71 29 116 169 260 l130 135 7 -225
c5 -124 7 -296 5 -382z m357 -766 c22 -23 61 -55 88 -70 26 -15 48 -29 48 -32
0 -4 -16 -12 -36 -19 -49 -18 -100 -65 -135 -125 l-29 -51 0 177 c0 97 -3 185
-6 195 -3 12 1 10 13 -7 10 -14 36 -44 57 -68z m2062 -26 c-17 -10 -41 -27
-53 -39 l-23 -20 0 87 0 88 53 -49 54 -48 -31 -19z m1039 -17 c-22 -14 -48
-36 -57 -50 -17 -23 -17 -22 -17 53 l-1 77 58 -27 58 -27 -41 -26z m-5158 -34
l21 -20 -49 -48 -49 -48 0 101 0 102 28 -34 c15 -18 37 -42 49 -53z m3773 -2
c0 -26 0 -26 -20 -8 -16 14 -17 20 -8 27 22 13 28 9 28 -19z m-2061 -165 c-1
-166 -2 -178 -13 -133 -24 99 -76 175 -152 222 -18 11 -17 12 7 12 14 1 54 19
90 41 35 21 65 39 67 40 1 0 2 -82 1 -182z m14 -873 l6 -550 -29 36 c-17 20
-79 76 -139 123 -199 158 -258 273 -201 391 11 23 70 91 131 151 60 60 123
129 139 152 31 47 64 140 75 210 4 24 8 42 10 40 1 -2 5 -250 8 -553z m350
319 c18 -22 81 -83 142 -135 135 -117 167 -159 173 -234 7 -91 -26 -146 -184
-301 -73 -72 -144 -150 -157 -173 l-25 -43 -6 173 c-3 96 -8 327 -11 514 l-5
340 21 -50 c11 -27 35 -68 52 -91z m3123 20 c202 -175 238 -222 237 -310 -1
-91 -58 -169 -264 -360 l-66 -61 -6 276 c-4 152 -7 344 -7 426 l0 150 19 -31
c10 -17 49 -57 87 -90z m-954 -86 c115 -105 144 -154 135 -229 -8 -67 -47
-134 -121 -211 -52 -54 -186 -178 -193 -178 -1 0 -2 96 -2 213 -1 116 -4 296
-7 400 l-7 187 49 -47 c28 -27 93 -87 146 -135z m-4186 7 c184 -158 227 -214
228 -296 0 -92 -55 -169 -265 -366 l-67 -63 -6 213 c-3 116 -8 311 -11 432
l-6 220 29 -41 c16 -22 60 -66 98 -99z m3723 -383 l1 -213 -62 47 c-92 70
-181 164 -207 218 -31 63 -31 128 -1 186 12 25 75 98 139 163 l116 118 6 -153
c4 -84 7 -249 8 -366z m1408 -891 l46 -31 -61 0 -62 0 0 52 c0 49 1 51 15 31
8 -11 36 -35 62 -52z m-1039 -2 c17 -12 32 -23 32 -25 0 -2 -22 -4 -49 -4
l-49 0 -4 40 c-3 38 -3 39 17 24 11 -8 35 -24 53 -35z m-2095 -11 c17 -27 17
-28 -3 -28 -16 0 -20 7 -20 32 0 17 1 29 3 27 2 -2 11 -16 20 -31z m-2069 -15
c19 -23 19 -23 -2 -23 -17 0 -22 6 -22 27 0 14 1 24 3 22 1 -2 11 -14 21 -26z
m4846 -420 l0 -167 -49 55 c-57 63 -155 120 -239 138 -107 22 -254 8 -386 -38
-33 -12 -62 -21 -66 -21 -4 0 -8 43 -9 95 l-2 95 213 3 c117 1 286 3 376 5
l162 2 0 -167z m-1040 60 l0 -96 -26 24 c-71 66 -73 169 -4 169 l30 0 0 -97z
m-298 20 c9 -108 41 -177 117 -254 46 -45 84 -73 124 -89 55 -23 57 -25 57
-61 0 -21 3 -45 7 -55 3 -9 -25 14 -63 52 -156 156 -347 185 -606 91 l-66 -24
-6 45 c-3 25 -6 116 -6 203 l0 159 219 0 218 0 5 -67z m-960 12 c-72 -65 -103
-132 -104 -226 -1 -169 77 -296 229 -373 29 -14 58 -26 65 -26 7 0 19 -4 27
-9 11 -7 6 -17 -23 -45 -20 -20 -36 -46 -36 -57 0 -19 -6 -20 -102 -17 l-101
3 -18 52 c-67 198 -219 346 -378 368 l-51 7 0 102 c0 57 -3 137 -6 179 l-7 76
89 4 c49 1 174 4 278 5 l188 2 -50 -45z m-794 -166 l-3 -202 -100 -43 c-87
-38 -110 -44 -171 -44 -99 0 -169 35 -202 102 -20 40 -22 52 -13 85 11 40 66
123 82 123 6 0 6 -8 -1 -19 -17 -32 -11 -68 15 -99 33 -40 74 -48 120 -26 55
26 85 77 85 145 0 70 -27 115 -89 146 -24 12 -45 24 -48 26 -2 3 71 5 162 6
l165 2 -2 -202z m-1030 -11 l3 -196 -72 -12 c-85 -15 -176 -45 -274 -91 -61
-28 -81 -33 -150 -33 -59 -1 -89 4 -115 18 -55 29 -99 76 -106 113 -9 46 18
111 62 154 26 24 33 28 25 12 -32 -63 13 -143 82 -143 127 0 184 186 86 277
-50 46 -186 69 -253 43 -24 -9 -26 -8 -26 20 l0 30 358 2 c196 2 362 3 367 2
6 0 11 -75 13 -196z m509 188 c-124 -45 -206 -179 -193 -317 20 -219 184 -370
417 -386 l77 -6 -33 -28 c-32 -28 -35 -29 -148 -29 l-115 0 -42 85 c-28 58
-61 107 -104 153 l-64 67 -7 238 -7 237 128 0 c120 -1 126 -2 91 -14z m1513
-140 c-12 -31 -5 -70 16 -87 10 -8 14 -36 14 -96 l0 -85 -32 20 c-97 60 -103
164 -15 259 25 28 31 24 17 -11z m1792 -146 c86 -24 129 -90 177 -275 18 -66
39 -137 46 -157 l15 -38 -140 0 c-111 0 -140 3 -140 14 0 7 -19 35 -42 61 -47
54 -125 95 -178 95 -49 0 -112 -32 -143 -71 l-27 -34 0 151 0 151 73 31 c174
73 279 94 359 72z m-1017 -229 c22 -10 50 -29 62 -42 24 -26 78 -137 89 -182
l6 -27 -298 2 -299 3 -3 71 -3 71 88 40 c179 82 280 100 358 64z m-1397 -45
c43 -23 79 -66 111 -136 l29 -65 -95 -3 c-53 -1 -97 -1 -98 0 -2 2 -5 51 -7
111 -3 98 -2 107 15 107 10 0 30 -6 45 -14z m3081 -103 c47 -32 68 -29 108 13
l34 37 -7 -39 c-3 -21 -12 -54 -20 -71 l-13 -33 -80 0 -81 0 0 83 c0 72 2 79
13 57 7 -13 28 -35 46 -47z m-4477 -24 c2 -44 1 -83 -1 -85 -2 -2 -168 -4
-368 -4 l-363 0 0 35 c0 19 1 35 3 35 1 0 27 -9 57 -21 143 -55 258 -45 431
36 119 56 188 82 221 84 14 1 17 -12 20 -80z m1038 0 l0 -60 -30 21 c-16 12
-46 24 -65 27 -19 3 -35 8 -35 12 1 6 107 58 123 60 4 1 7 -26 7 -60z m1008
-356 c-10 -2 -28 -2 -40 0 -13 2 -5 4 17 4 22 1 32 -1 23 -4z m-1168 -14 c0
-5 -20 -19 -45 -30 -47 -21 -72 -19 -140 9 l-40 17 55 6 c97 10 170 10 170 -2z"/>
<path d="M6060 9347 l-115 -62 -85 0 c-112 0 -174 -28 -207 -95 -29 -55 -29
-92 -2 -148 41 -83 125 -107 181 -52 27 28 30 36 25 76 -5 44 -4 45 15 27 33
-30 58 -89 58 -137 0 -87 -90 -150 -215 -150 -54 0 -76 7 -181 56 -138 65
-228 95 -319 104 l-65 7 0 83 c0 46 -3 84 -6 84 -4 0 -60 -28 -125 -62 l-119
-63 0 -55 c0 -55 -1 -56 -68 -125 -76 -79 -123 -162 -173 -304 -39 -113 -76
-164 -148 -204 -129 -73 -228 -20 -247 133 l-6 55 24 -35 c74 -109 235 21 173
140 -8 16 -31 41 -51 56 -106 82 -288 4 -341 -146 -18 -52 -19 -53 -111 -99
l-93 -46 3 -182 c3 -171 0 -200 -18 -172 -3 6 -31 22 -61 35 -147 65 -372 3
-523 -146 -63 -62 -70 -74 -118 -196 -43 -109 -51 -123 -52 -91 0 20 -1 37 -3
37 -1 0 -57 -24 -122 -54 l-120 -54 -3 -72 -3 -72 -34 6 c-49 10 -155 56 -252
111 -156 87 -300 94 -475 21 -12 -6 -18 0 -23 22 l-6 30 -117 -52 -117 -52 -3
-206 -2 -207 -53 6 c-77 8 -161 -19 -208 -66 -80 -79 -56 -206 48 -260 78 -40
164 35 135 119 -10 28 -10 29 9 17 11 -7 32 -29 46 -51 21 -30 27 -50 27 -92
0 -46 -4 -58 -29 -85 -44 -45 -101 -71 -171 -77 -54 -4 -77 1 -195 41 -143 49
-279 73 -355 61 l-44 -6 0 96 c0 53 -1 96 -3 96 -2 0 -57 -22 -123 -48 l-119
-48 -1 -106 -1 -105 -47 -66 c-68 -96 -93 -162 -141 -384 -4 -15 -13 -23 -25
-23 -16 0 -19 -5 -14 -24 13 -54 -101 -136 -189 -136 -37 0 -53 6 -80 30 -33
29 -67 107 -67 154 0 18 3 16 20 -11 67 -110 228 26 166 141 -37 69 -125 100
-213 75 -70 -19 -143 -95 -167 -173 -55 -174 63 -394 230 -430 l31 -7 -1 -67
c-1 -54 4 -75 24 -110 29 -51 92 -92 141 -92 98 0 165 117 106 186 -17 20 -33
27 -56 26 -43 -1 -31 13 23 27 65 16 107 14 143 -9 51 -31 68 -65 68 -140 0
-94 -36 -163 -120 -230 -369 -294 -375 -622 -16 -949 100 -92 133 -147 139
-233 6 -74 -2 -100 -39 -143 -37 -42 -81 -52 -155 -36 -58 13 -72 31 -25 31
40 0 81 49 81 97 0 71 -99 128 -180 104 -47 -14 -98 -55 -112 -90 -14 -38 -11
-116 7 -172 18 -53 101 -153 137 -165 16 -5 7 -12 -50 -40 -122 -59 -180 -155
-169 -276 4 -46 12 -68 34 -96 58 -71 139 -91 199 -50 39 27 54 56 54 107 0
51 -19 73 -71 81 l-44 6 54 17 c69 22 107 21 150 -1 51 -26 73 -73 69 -152 -5
-99 -34 -147 -142 -240 -108 -92 -175 -174 -219 -267 -27 -58 -32 -82 -35
-163 -3 -77 0 -107 17 -157 41 -120 122 -232 262 -362 91 -84 122 -144 122
-236 1 -129 -79 -190 -205 -155 -21 6 -40 16 -44 22 -4 7 -3 8 4 4 6 -4 27 0
47 8 40 17 69 70 59 110 -13 55 -103 104 -167 91 -166 -34 -185 -241 -36 -387
54 -53 62 -66 98 -170 l39 -113 178 0 179 0 2 -295 c1 -162 -1 -288 -4 -280
-18 47 -91 90 -156 90 -95 0 -199 -85 -228 -187 -19 -69 -8 -179 24 -245 65
-133 166 -194 308 -186 l69 4 0 -124 0 -123 85 7 c47 4 114 17 148 29 l62 23
3 111 3 111 178 0 179 0 12 -31 c18 -41 86 -110 135 -134 31 -16 61 -20 132
-20 l93 0 0 -34 0 -34 87 7 c55 5 109 16 150 33 l63 25 0 93 c0 52 4 96 8 99
4 2 166 8 359 12 l352 7 5 -34 c3 -19 7 -70 8 -114 l3 -80 30 2 c17 2 94 3
173 3 212 1 304 36 441 165 l68 65 152 0 151 0 0 -123 0 -123 88 9 c62 6 105
17 151 38 63 29 64 29 85 10 58 -53 156 -76 255 -61 128 20 309 135 371 235
17 27 28 35 51 35 l29 0 0 -121 0 -121 33 5 c17 3 59 9 92 13 34 4 85 19 118
35 l57 29 0 79 0 78 203 6 c111 4 275 7 365 7 l162 0 0 -101 0 -102 83 7 c63
5 99 15 155 41 l73 34 -6 218 c-3 120 -10 632 -15 1138 -6 506 -15 1291 -20
1745 -5 454 -14 1217 -20 1695 -10 891 -21 1793 -41 3450 -6 517 -12 941 -12
942 -1 1 -54 -26 -117 -60z m-814 -608 c38 -12 127 -52 199 -88 l130 -68 -87
-41 c-90 -43 -189 -125 -228 -187 -11 -18 -37 -78 -58 -135 l-39 -102 -6 114
c-4 62 -7 206 -7 321 0 170 2 207 14 207 8 0 45 -10 82 -21z m692 -174 c3 -47
-6 -56 -29 -29 -7 8 -26 22 -43 31 l-30 15 38 13 c21 7 40 16 43 19 11 11 17
-4 21 -49z m-1038 -346 l0 -291 -37 6 c-37 6 -352 155 -353 167 0 3 17 11 38
17 44 14 140 73 196 123 51 44 97 118 126 202 13 37 25 67 27 67 2 0 3 -131 3
-291z m841 148 c42 -27 66 -75 75 -147 l6 -55 -24 35 c-31 46 -63 57 -110 37
-71 -30 -99 -123 -56 -187 53 -80 157 -99 258 -47 l50 26 0 -519 0 -520 -50 0
c-127 0 -281 -64 -384 -160 -70 -66 -94 -108 -157 -273 -46 -122 -90 -193
-135 -219 l-31 -18 -7 246 -7 245 26 31 c94 111 98 258 11 387 l-35 51 -6 248
-6 247 46 33 c87 63 177 210 224 369 47 158 211 258 312 190z m-1513 -257 c8
0 12 -3 9 -6 -6 -6 -117 -54 -124 -54 -2 0 -3 34 -3 76 l0 76 51 -46 c28 -25
58 -46 67 -46z m-550 -250 c41 -25 71 -89 72 -150 l0 -45 -19 32 c-35 57 -99
55 -151 -3 -25 -29 -30 -43 -30 -84 0 -124 151 -187 278 -115 l42 24 0 -37 0
-37 -63 -1 c-72 -1 -154 -38 -187 -84 -42 -59 -43 -157 -3 -202 82 -93 246
-20 192 85 -8 16 -1 12 25 -12 l36 -35 0 -93 0 -93 -37 -24 c-50 -33 -123 -50
-181 -43 -26 3 -85 24 -132 46 -122 57 -227 84 -332 84 l-86 0 -7 90 -7 89 71
65 c87 79 148 178 192 313 37 110 73 169 126 202 82 51 147 61 201 28z m865
-38 c119 -59 198 -87 288 -101 35 -6 67 -11 72 -11 4 0 7 -74 7 -165 0 -149
-2 -166 -17 -171 -114 -36 -173 -101 -173 -191 0 -85 60 -140 144 -131 l46 6
0 -84 c0 -83 0 -84 -27 -91 -62 -17 -128 -6 -219 35 -153 69 -225 87 -339 86
-66 -1 -115 -7 -144 -18 -24 -9 -46 -16 -48 -16 -3 0 -3 35 -2 78 2 42 -1 141
-5 220 l-9 143 39 -8 c64 -13 152 -6 199 17 50 24 70 51 87 113 33 127 -112
244 -197 160 -24 -24 -27 -34 -23 -75 6 -54 -5 -52 -42 8 -64 103 -31 193 87
237 81 30 155 19 276 -41z m-2061 -510 c115 -56 203 -88 275 -97 103 -13 93 3
93 -154 l0 -138 -31 -39 c-44 -54 -122 -222 -149 -322 -26 -93 -60 -148 -122
-192 -72 -52 -147 -61 -205 -23 -26 17 -59 83 -66 136 l-6 37 33 -35 c42 -44
89 -48 134 -10 56 47 51 143 -10 202 -60 57 -122 67 -194 31 -55 -27 -95 -69
-133 -138 l-31 -55 0 190 0 190 87 -3 c76 -3 94 0 132 20 62 32 84 66 89 138
4 53 1 65 -23 99 -30 45 -86 76 -119 67 -63 -16 -102 -87 -76 -137 l13 -24
-27 24 c-33 31 -66 99 -66 137 0 90 105 158 232 151 55 -4 84 -13 170 -55z
m909 -518 c130 -53 152 -59 230 -62 79 -4 114 2 227 34 20 6 22 3 22 -34 0
-61 -87 -317 -125 -366 -52 -69 -105 -99 -180 -104 -63 -4 -66 -3 -99 30 -33
33 -56 89 -56 136 0 23 1 23 26 -7 48 -57 136 -47 164 19 16 39 8 115 -17 148
-74 99 -204 94 -298 -10 -59 -65 -80 -120 -79 -213 0 -77 5 -93 52 -187 2 -5
-30 -8 -71 -8 l-74 0 -7 335 c-4 184 -5 339 -1 346 5 8 30 10 74 7 52 -4 101
-19 212 -64z m1144 -71 c118 -49 152 -58 215 -61 41 -2 94 1 118 6 l42 10 0
-154 c0 -85 -2 -154 -5 -154 -2 0 -58 28 -124 62 -115 60 -122 62 -208 66
-101 5 -175 -8 -250 -42 -56 -27 -136 -94 -163 -139 -17 -27 -18 -23 -25 178
l-7 207 28 30 c37 38 60 51 109 58 61 9 118 -5 270 -67z m1385 28 c21 -15 26
-28 28 -73 l3 -56 -44 5 c-76 9 -127 -45 -127 -133 0 -51 68 -120 128 -130
l42 -7 0 -57 0 -57 -112 -6 c-62 -4 -182 -7 -265 -7 l-153 0 41 53 c50 65 99
167 135 277 23 72 35 92 79 136 80 80 179 102 245 55z m-4715 -277 c33 -8 98
-31 145 -51 133 -56 206 -69 301 -55 44 6 100 20 124 31 l45 20 0 -138 0 -139
-217 -6 c-120 -3 -298 -9 -395 -12 l-178 -6 0 186 0 186 58 0 c32 0 85 -7 117
-16z m1645 -214 l0 -100 -97 0 -96 0 39 28 c48 36 121 114 136 147 6 14 13 25
15 25 1 0 3 -45 3 -100z m-698 -41 c18 -17 47 -40 63 -50 l30 -19 -82 0 -83 0
0 69 c0 38 -2 84 -5 102 -5 30 -3 27 19 -19 14 -28 40 -66 58 -83z m2503 17
l50 -23 -156 -8 c-85 -4 -164 -5 -175 -3 -17 3 -16 6 9 23 74 48 181 53 272
11z m1295 -398 c-1 -100 -1 -102 -17 -73 -28 55 -95 114 -151 135 -71 27 -193
27 -262 1 -138 -53 -216 -183 -189 -313 21 -97 126 -167 201 -135 50 22 80 60
85 111 5 38 2 48 -20 70 -17 17 -38 26 -59 27 -32 0 -32 1 -8 10 96 39 174 28
217 -28 25 -32 28 -45 27 -107 0 -105 -27 -150 -153 -261 -154 -136 -217 -231
-241 -366 -21 -116 11 -243 90 -362 27 -40 96 -118 154 -175 121 -117 147
-160 154 -253 8 -116 -43 -180 -143 -178 -53 1 -142 27 -97 28 86 3 134 104
77 165 -67 73 -202 56 -256 -31 -49 -79 -6 -244 82 -315 l39 -32 -34 -35 c-49
-50 -76 -115 -76 -181 0 -98 47 -166 130 -191 50 -15 86 -5 127 36 27 27 33
40 33 77 0 56 -21 85 -68 94 l-37 8 40 12 c136 42 225 -14 225 -143 0 -106
-31 -153 -189 -292 -93 -82 -165 -185 -193 -274 -30 -101 -23 -226 20 -320 45
-99 109 -183 208 -276 106 -99 130 -132 150 -212 27 -104 -4 -185 -82 -215
-39 -15 -52 -15 -99 -5 -58 13 -82 31 -41 31 33 0 83 44 91 80 14 63 -59 130
-142 130 -44 0 -108 -34 -136 -72 -43 -57 -29 -182 29 -267 l24 -36 -100 -9
c-55 -4 -107 -6 -115 -2 -13 5 -15 47 -15 298 0 161 -4 604 -10 983 -5 380
-14 1124 -20 1655 -5 531 -12 1040 -14 1132 l-4 167 151 4 c84 1 257 4 385 5
l232 2 0 -102z m-1035 80 c5 -19 27 -4219 22 -4225 -3 -3 -42 -7 -86 -10 l-81
-6 14 34 c37 92 28 174 -26 226 -70 68 -157 70 -230 5 -26 -22 -33 -74 -14
-110 19 -36 43 -52 83 -52 l28 -1 -30 -16 c-42 -23 -134 -23 -169 0 -43 28
-70 99 -63 165 9 88 46 150 138 231 106 94 171 170 213 251 112 214 81 408
-98 596 -40 44 -91 92 -113 108 -124 92 -158 276 -67 356 28 24 44 30 82 30
77 0 171 -33 101 -36 -58 -2 -91 -63 -69 -128 13 -41 74 -86 116 -86 50 1 110
35 141 81 24 37 28 52 28 113 0 114 -53 196 -161 250 -27 14 -69 28 -92 32
l-42 6 38 28 c74 53 121 146 121 240 1 66 -12 93 -60 132 -64 51 -157 47 -213
-9 -55 -55 -21 -148 60 -163 l39 -7 -45 -12 c-103 -30 -166 -11 -203 60 -14
26 -17 50 -14 105 5 96 31 137 152 249 343 315 348 624 15 914 -41 36 -85 79
-98 95 -52 70 -65 201 -26 261 34 52 110 69 199 43 l40 -11 -35 -9 c-46 -12
-70 -42 -70 -87 0 -48 29 -94 73 -114 44 -21 69 -21 110 -1 77 39 109 91 110
180 1 93 -52 189 -129 232 -13 7 -13 13 -3 35 11 25 16 26 98 30 202 7 212 7
216 -5z m-1515 -38 c-101 -55 -160 -146 -160 -247 0 -47 21 -106 48 -136 26
-29 87 -57 123 -57 90 0 153 112 104 186 -14 22 -33 28 -74 27 -32 -2 10 18
62 29 48 10 65 10 99 -2 60 -22 82 -57 86 -140 6 -106 -21 -156 -141 -259
-108 -92 -175 -175 -221 -271 -25 -54 -31 -80 -34 -155 -7 -172 51 -290 234
-473 142 -142 167 -184 168 -282 2 -140 -96 -204 -229 -149 l-30 12 37 7 c48
9 65 24 79 70 16 51 -6 91 -66 120 -81 39 -176 7 -217 -73 -54 -107 27 -290
156 -351 l39 -18 -30 -13 c-39 -17 -107 -77 -133 -119 -67 -109 -38 -256 60
-306 71 -36 143 -19 180 43 42 68 11 147 -58 147 l-37 1 26 14 c15 8 51 17 80
20 104 12 165 -49 163 -161 -1 -90 -37 -159 -119 -224 -197 -157 -296 -333
-282 -500 13 -150 76 -260 238 -422 130 -128 159 -173 166 -258 13 -140 -73
-216 -202 -180 -56 16 -63 25 -22 26 43 2 87 52 87 100 0 71 -100 129 -182
105 -121 -37 -158 -164 -88 -302 l20 -39 -73 0 -74 0 -7 413 c-24 1489 -30
1826 -54 3409 l-7 427 110 4 c61 1 137 4 170 5 l60 2 -55 -30z m480 -77 l-1
-108 -23 49 c-32 65 -80 113 -141 142 l-50 24 108 0 107 0 0 -107z m292 15
l-32 -33 0 65 0 65 32 -33 33 -32 -33 -32z m-1309 -760 c4 -464 12 -1420 18
-2126 7 -705 10 -1284 8 -1286 -2 -2 -82 -6 -178 -10 l-173 -7 35 42 c70 81
100 184 76 258 -37 116 -192 152 -269 64 -27 -30 -31 -42 -26 -71 7 -45 39
-78 85 -89 l36 -9 -53 -13 c-139 -34 -225 41 -209 181 10 77 43 126 176 258
72 72 140 149 159 182 151 257 92 499 -175 720 -84 70 -116 118 -132 198 -32
162 80 252 231 186 l33 -14 -33 -1 c-60 -2 -94 -60 -72 -126 12 -37 58 -78 98
-88 61 -15 149 44 178 119 36 94 -8 225 -98 292 l-47 36 28 32 c60 68 86 188
57 258 -57 137 -293 119 -289 -22 1 -44 48 -92 91 -93 l27 -1 -30 -13 c-48
-22 -137 -19 -169 6 -55 43 -73 116 -51 203 20 75 58 128 138 195 113 93 214
232 249 344 22 71 26 181 8 247 -30 112 -117 232 -244 340 -101 85 -129 134
-134 235 -3 78 14 119 64 151 33 22 115 22 165 1 32 -15 33 -15 8 -16 -15 -1
-38 -10 -53 -22 -22 -17 -26 -28 -26 -69 0 -58 31 -102 85 -120 45 -15 84 -6
133 30 99 72 95 247 -8 350 -62 62 -121 85 -232 88 -87 3 -103 1 -152 -21 -31
-14 -67 -37 -81 -51 -14 -14 -28 -26 -30 -26 -3 0 -5 25 -5 55 l0 55 258 3
c141 1 316 3 388 5 l131 2 6 -842z m-1556 779 c-118 -110 -123 -291 -10 -365
49 -33 93 -38 138 -16 105 50 96 200 -13 205 -40 2 58 28 107 28 49 1 56 -2
91 -37 28 -28 40 -49 45 -82 14 -94 -34 -203 -117 -265 -22 -16 -76 -68 -120
-113 -201 -209 -219 -431 -55 -672 17 -25 83 -97 147 -160 95 -94 120 -124
133 -164 34 -100 15 -195 -46 -240 -35 -26 -127 -27 -172 -3 l-30 16 33 1 c23
0 42 9 63 29 82 82 -18 201 -148 176 -53 -10 -122 -80 -125 -126 -5 -127 37
-219 133 -288 l37 -27 -33 -27 c-38 -30 -81 -113 -91 -172 -13 -87 34 -172
114 -207 56 -25 98 -18 140 23 34 34 47 74 37 119 -7 30 -27 47 -74 60 -25 7
-24 8 14 18 138 40 219 -13 219 -143 0 -97 -31 -153 -133 -241 -261 -226 -329
-430 -221 -662 43 -92 96 -159 220 -282 87 -85 110 -114 124 -154 33 -100 14
-195 -47 -240 -34 -25 -114 -26 -167 -3 l-35 15 33 1 c24 1 42 10 63 32 95
101 -63 230 -193 157 -78 -44 -102 -134 -65 -244 19 -55 74 -126 119 -154 l28
-17 -97 -6 c-54 -4 -130 -7 -169 -7 l-71 0 -7 392 c-3 216 -11 623 -16 903 -5
281 -14 776 -20 1100 -6 325 -15 811 -20 1080 -5 270 -10 558 -10 642 l0 152
58 4 c31 2 101 4 156 5 l99 2 -46 -43z m515 -12 c3 -55 -5 -72 -17 -36 -3 11
-24 36 -45 55 l-40 36 49 0 49 0 4 -55z m2067 -1154 l1 -354 -38 59 c-22 34
-69 84 -110 117 -163 134 -248 249 -246 337 1 72 33 118 174 251 109 103 137
135 165 193 19 38 36 78 37 90 5 59 16 -383 17 -693z m2070 25 l1 -349 -31 46
c-17 26 -65 75 -107 111 -214 178 -278 297 -222 410 25 50 57 85 182 199 94
85 138 143 155 203 12 42 20 -201 22 -620z m-4127 114 l3 -435 -66 65 c-37 36
-107 103 -156 150 -100 96 -143 167 -143 237 0 76 32 123 175 258 81 77 141
142 156 170 30 58 28 96 31 -445z m2466 269 c167 -152 202 -232 148 -343 -14
-29 -45 -75 -68 -101 -42 -47 -207 -190 -212 -184 -2 2 -6 179 -9 392 l-6 388
27 -34 c15 -18 69 -71 120 -118z m-1925 -194 c45 -88 17 -188 -81 -291 -56
-58 -169 -154 -183 -154 -5 0 -9 110 -9 278 0 154 -3 320 -7 371 l-6 92 133
-128 c72 -70 141 -146 153 -168z m-1583 27 c0 -143 3 -293 6 -335 5 -52 3 -77
-4 -77 -5 0 -55 44 -109 98 -147 144 -182 233 -132 335 19 38 213 237 232 237
4 0 7 -116 7 -258z m3103 -1371 c-1 -2 -7 7 -12 20 -23 61 -108 140 -165 155
-34 8 -33 16 4 32 43 19 123 94 145 137 l20 36 5 -188 c3 -103 4 -190 3 -192z
m2067 257 l0 -102 -42 42 c-22 23 -46 42 -51 42 -5 0 11 22 37 50 25 27 46 54
46 60 0 5 2 10 5 10 3 0 5 -46 5 -102z m-4120 -10 l0 -91 -22 20 c-13 11 -37
28 -54 37 l-32 15 52 54 c28 30 52 55 54 56 1 0 2 -40 2 -91z m-1040 -57 c0
-33 3 -68 6 -78 5 -11 -7 -5 -32 18 -21 20 -50 42 -63 49 -24 12 -23 12 25 40
27 15 52 28 57 29 4 1 7 -26 7 -58z m3535 -31 c15 0 11 -6 -17 -25 -63 -43
-125 -154 -130 -233 -3 -53 -16 115 -17 225 l-1 112 73 -39 c39 -22 81 -40 92
-40z m-2196 26 c9 -10 8 -16 -4 -26 -13 -11 -15 -8 -15 14 0 30 3 32 19 12z
m2067 -556 c28 -96 53 -133 189 -265 145 -142 175 -188 175 -262 -1 -95 -52
-166 -231 -320 -60 -52 -116 -108 -125 -125 -8 -16 -17 -28 -18 -26 -2 1 -6
253 -9 558 -2 305 -3 542 0 525 2 -16 11 -55 19 -85z m-302 -1018 c-1 -2 -13
17 -28 42 -15 25 -70 82 -125 130 -121 105 -177 166 -207 231 -54 115 -22 191
143 340 125 112 153 146 185 223 l23 55 5 -509 c3 -280 4 -510 4 -512z m2066
584 l0 -433 -43 41 c-24 22 -86 80 -138 127 -120 110 -164 180 -164 259 0 78
39 135 178 259 62 55 123 118 137 140 14 23 26 41 27 41 2 0 3 -195 3 -434z
m-5156 -76 l6 -425 -22 26 c-13 15 -61 59 -108 98 -137 117 -202 204 -216 289
-12 73 25 131 173 270 72 68 136 134 143 148 7 13 14 23 15 21 1 -1 5 -193 9
-427z m1036 35 c0 -377 -1 -394 -18 -377 -9 9 -51 45 -93 80 -136 112 -209
217 -209 299 0 78 22 110 173 255 78 76 143 138 145 138 1 0 2 -178 2 -395z
m542 106 c73 -115 6 -259 -191 -414 l-58 -46 -6 142 c-4 78 -7 242 -7 363 l0
221 117 -111 c64 -61 129 -131 145 -155z m3581 -1071 c-3 -11 -12 -20 -19 -20
-12 0 -12 4 -2 20 7 11 16 20 19 20 4 0 5 -9 2 -20z m-2063 -40 c0 -25 -4 -30
-25 -30 l-26 0 23 30 c12 17 23 30 25 30 2 0 3 -13 3 -30z m-2052 -65 c-2 -1
-28 -5 -58 -7 -54 -5 -54 -5 -30 11 14 9 38 28 55 43 l30 27 3 -36 c2 -19 2
-36 0 -38z m-1033 18 l0 -48 -60 -3 -60 -3 40 29 c22 16 49 39 59 51 11 11 20
21 20 21 1 0 1 -21 1 -47z m5155 -259 c0 -21 -4 -24 -20 -19 -11 4 -52 6 -92
6 -137 0 -218 -66 -218 -178 0 -120 127 -198 201 -124 22 22 29 39 29 68 0 22
-5 44 -12 51 -8 8 -9 12 -1 12 15 0 69 -69 83 -104 27 -73 -1 -137 -82 -182
-47 -26 -62 -29 -133 -28 -70 1 -92 6 -176 41 -91 39 -205 70 -279 75 l-35 3
-3 197 -2 197 77 4 c43 1 210 4 371 5 l292 2 0 -26z m-1036 -219 l7 -236 -61
-66 c-57 -60 -140 -203 -140 -239 0 -9 -34 -13 -117 -16 l-118 -3 -37 30 -37
30 77 6 c246 20 412 193 412 429 0 105 -77 218 -184 270 l-61 29 126 1 126 0
7 -235z m-1034 41 l0 -184 -47 -7 c-126 -19 -255 -125 -323 -266 -23 -46 -46
-103 -52 -126 l-10 -43 -100 0 c-85 0 -99 2 -105 18 -3 9 -22 34 -41 54 -32
34 -34 38 -16 44 67 22 151 72 194 116 153 156 152 412 -3 528 l-47 35 242 5
c134 3 258 7 276 8 l32 2 0 -184z m585 165 c-50 -23 -79 -55 -95 -104 -21 -68
10 -149 72 -187 49 -30 84 -26 124 14 36 36 43 70 22 109 -11 21 -10 21 8 7
30 -24 44 -42 66 -89 36 -77 3 -146 -91 -189 -86 -40 -159 -35 -286 16 l-100
41 -2 38 c-2 21 -4 111 -5 201 l-3 162 165 0 165 0 -40 -19z m-1601 -93 c7
-105 8 -308 1 -308 -2 0 -38 11 -80 25 -251 82 -448 46 -591 -108 l-64 -69 0
50 0 50 55 27 c147 72 234 205 236 364 l1 61 218 0 217 0 7 -92z m-1034 -13
c0 -52 -2 -95 -5 -95 -3 0 -44 12 -92 26 -165 48 -331 43 -450 -13 -60 -29
-141 -97 -162 -137 -8 -14 -18 -26 -23 -26 -4 0 -8 74 -8 165 l0 165 208 3
c114 1 280 3 370 5 l162 2 0 -95z m368 38 c3 -46 0 -55 -30 -89 l-33 -37 -7
49 c-3 27 -7 68 -7 92 l-1 43 38 -3 37 -3 3 -52z m1044 -137 c50 -69 34 -160
-38 -207 -16 -10 -32 -19 -36 -19 -5 0 -8 32 -8 72 0 52 6 83 20 114 16 33 18
47 10 68 -5 15 -10 30 -10 33 0 11 34 -23 62 -61z m-1583 -185 c47 -16 107
-38 134 -50 l47 -20 0 -146 0 -146 -33 35 c-40 42 -73 56 -133 56 -81 0 -160
-51 -210 -136 l-26 -44 -134 0 c-129 0 -134 1 -125 19 6 10 26 82 45 158 51
207 85 267 172 299 54 20 158 10 263 -25z m996 -182 c37 -11 100 -36 141 -54
l74 -34 0 -70 c0 -50 -4 -71 -12 -72 -55 -3 -584 -16 -586 -14 -1 1 9 35 24
76 67 187 159 230 359 168z m1225 -31 c0 -24 3 -73 7 -110 l6 -68 -102 0
c-101 0 -102 0 -95 23 25 83 67 147 118 178 51 31 66 26 66 -23z m1426 1 c38
-12 113 -41 167 -66 104 -47 189 -66 267 -57 65 7 130 24 173 46 l37 18 0 -34
0 -34 -112 -6 c-62 -3 -227 -8 -365 -11 l-253 -5 0 85 c0 47 4 85 9 85 5 0 40
-9 77 -21z m-1050 -59 l62 -24 -57 -24 c-31 -13 -62 -26 -68 -29 -10 -4 -13
10 -13 52 0 31 3 55 8 53 4 -1 35 -14 68 -28z m-3449 -105 l3 -85 -84 0 -84 0
-15 43 c-9 23 -18 55 -22 71 l-6 28 35 -37 c31 -33 40 -37 68 -31 36 7 76 40
89 74 5 12 10 22 11 22 2 0 4 -38 5 -85z m3718 -311 c-27 -13 -63 -24 -80 -24
-27 0 -95 32 -95 45 0 3 51 5 113 4 l112 -1 -50 -24z m-1300 6 c-28 -12 -45
-12 -45 0 0 6 15 10 33 9 27 0 29 -2 12 -9z"/>
</g>
</svg>
